<?xml version="1.0" standalone="no"?>
<!DOCTYPE svg PUBLIC "-//W3C//DTD SVG 20010904//EN"
 "http://www.w3.org/TR/2001/REC-SVG-20010904/DTD/svg10.dtd">
<svg version="1.0" xmlns="http://www.w3.org/2000/svg"
 width="700.000000pt" height="700.000000pt" viewBox="0 0 700.000000 700.000000"
 preserveAspectRatio="xMidYMid meet">
<metadata>
Created by potrace 1.14, written by Peter Selinger 2001-2017
</metadata>
<g transform="translate(0.000000,700.000000) scale(0.100000,-0.100000)"
fill="#000000" stroke="none">
<path d="M1024 6984 c-252 -42 -480 -160 -664 -344 -147 -146 -243 -304 -304
-499 -60 -189 -57 -54 -53 -2686 3 -2655 -2 -2430 63 -2623 149 -445 551 -769
1022 -822 69 -8 797 -10 2472 -8 l2375 4 90 21 c180 43 357 123 485 220 64 48
185 168 235 233 135 176 221 394 245 620 14 133 14 4706 0 4820 -24 193 -101
396 -212 557 -141 205 -381 384 -618 461 -185 61 28 56 -2630 58 -2020 2
-2439 0 -2506 -12z m2926 -1318 c488 -72 753 -181 964 -394 85 -86 120 -134
171 -234 120 -233 138 -592 45 -871 -100 -297 -274 -511 -506 -619 -35 -16
-64 -36 -64 -42 0 -7 34 -23 78 -35 299 -87 575 -316 692 -575 112 -246 130
-623 45 -922 -32 -111 -109 -268 -175 -355 -70 -94 -213 -226 -321 -299 -218
-145 -472 -235 -824 -291 -137 -22 -163 -23 -1147 -26 l-1008 -4 0 2346 0
2346 968 -4 c851 -3 981 -5 1082 -21z"/>
<path d="M2890 4366 l0 -566 305 0 c325 0 452 9 579 41 216 55 364 189 422
384 27 89 25 258 -3 350 -54 173 -185 273 -428 328 -79 17 -137 20 -482 24
l-393 5 0 -566z"/>
<path d="M2890 2416 l0 -656 303 0 c536 0 733 24 920 113 154 73 255 184 307
337 31 91 40 307 16 400 -41 162 -125 260 -288 339 -204 97 -302 111 -840 118
l-418 6 0 -657z"/>
</g>
</svg>
