<?xml version="1.0" standalone="no"?>
<!DOCTYPE svg PUBLIC "-//W3C//DTD SVG 20010904//EN"
 "http://www.w3.org/TR/2001/REC-SVG-20010904/DTD/svg10.dtd">
<svg version="1.0" xmlns="http://www.w3.org/2000/svg"
 width="700.000000pt" height="700.000000pt" viewBox="0 0 700.000000 700.000000"
 preserveAspectRatio="xMidYMid meet">
<metadata>
Created by potrace 1.14, written by Peter Selinger 2001-2017
</metadata>
<g transform="translate(0.000000,700.000000) scale(0.100000,-0.100000)"
fill="#000000" stroke="none">
<path d="M1115 6993 c-216 -20 -444 -107 -615 -233 -243 -181 -400 -425 -473
-735 l-21 -90 -3 -2398 c-4 -2631 -7 -2492 56 -2688 61 -189 157 -347 301
-489 143 -143 301 -241 488 -300 199 -64 47 -61 2702 -58 l2415 3 100 27 c460
123 780 443 903 903 l27 100 3 2400 c2 1773 0 2425 -8 2495 -57 463 -388 865
-830 1009 -185 60 26 55 -2605 56 -1320 1 -2418 0 -2440 -2z m2680 -1292 c248
-28 509 -91 681 -162 208 -86 404 -260 508 -450 128 -234 154 -619 60 -898
-38 -113 -128 -279 -201 -370 -82 -103 -180 -179 -310 -243 -57 -28 -103 -54
-103 -59 0 -11 -6 -9 120 -44 243 -67 472 -222 615 -416 141 -191 204 -435
191 -739 -9 -237 -45 -381 -139 -563 -204 -395 -624 -638 -1268 -733 -99 -15
-235 -18 -1035 -21 l-921 -4 -5 2353 c-3 1294 -4 2357 -1 2361 8 13 1689 2
1808 -12z"/>
<path d="M2720 4441 l0 -701 353 0 c488 0 656 16 844 80 119 41 185 82 278
175 133 133 185 264 185 464 -1 391 -198 585 -671 661 -46 8 -247 14 -531 17
l-458 5 0 -701z"/>
<path d="M2720 2381 l0 -811 363 0 c695 1 902 28 1156 151 89 44 116 63 190
137 146 145 199 278 208 513 10 264 -57 442 -219 576 -72 60 -253 147 -368
177 -205 54 -267 59 -817 63 l-513 5 0 -811z"/>
</g>
</svg>
