<svg width="438" height="608" viewBox="0 0 438 608" fill="none" xmlns="http://www.w3.org/2000/svg">
<path d="M27.5 539.378V331C27.5 294.273 57.2731 264.5 94 264.5H343.5C380.227 264.5 410 294.273 410 331V540.998C410 562.814 392.314 580.5 370.498 580.5C350.114 580.5 333.077 564.99 331.169 544.696L327.446 505.111C322.485 452.351 245.383 452.628 240.8 505.421L235.497 566.523C234.81 574.431 228.191 580.5 220.254 580.5C212.391 580.5 205.808 574.539 205.03 566.714L199.057 506.666C193.808 453.885 116.615 454.647 112.408 507.521L109.614 542.64C107.913 564.018 90.0675 580.5 68.6215 580.5C45.9107 580.5 27.5 562.089 27.5 539.378Z" stroke="white" stroke-width="55"/>
<path d="M300.5 108.5C300.5 153.235 264.235 189.5 219.5 189.5C174.765 189.5 138.5 153.235 138.5 108.5C138.5 63.7649 174.765 27.5 219.5 27.5C264.235 27.5 300.5 63.7649 300.5 108.5Z" stroke="white" stroke-width="55"/>
</svg>
