<?xml version="1.0" standalone="no"?>
<!DOCTYPE svg PUBLIC "-//W3C//DTD SVG 20010904//EN"
 "http://www.w3.org/TR/2001/REC-SVG-20010904/DTD/svg10.dtd">
<svg version="1.0" xmlns="http://www.w3.org/2000/svg"
 width="260.000000pt" height="260.000000pt" viewBox="0 0 260.000000 260.000000"
 preserveAspectRatio="xMidYMid meet">
<metadata>
Created by potrace 1.11, written by Peter Selinger 2001-2013
</metadata>
<g transform="translate(0.000000,260.000000) scale(0.100000,-0.100000)"
fill="#000000" stroke="none">
<path d="M350 1315 l0 -945 85 0 85 0 0 94 0 95 56 -59 c62 -65 158 -121 250
-145 77 -20 252 -20 329 0 158 42 301 154 374 294 51 99 71 181 71 301 0 185
-59 329 -183 447 -122 115 -247 163 -427 164 -176 0 -310 -52 -414 -161 l-56
-59 0 460 0 459 -85 0 -85 0 0 -945z m821 57 c156 -75 249 -233 249 -422 0
-189 -93 -346 -249 -423 -64 -31 -71 -32 -191 -32 -120 0 -128 1 -192 32 -90
42 -133 77 -184 145 -119 162 -119 394 0 556 46 62 87 97 156 132 82 42 119
50 235 47 100 -2 116 -6 176 -35z"/>
</g>
</svg>
