<svg width="280" height="280" viewBox="0 0 280 280" fill="none" xmlns="http://www.w3.org/2000/svg">
<rect width="280" height="280" rx="49" fill="url(#paint0_linear_102_4)"/>
<path d="M79.4086 240V51.36H137.873C150.737 51.36 162.161 52.896 172.145 55.968C182.129 58.848 189.905 63.744 195.473 70.656C201.233 77.376 204.113 86.4 204.113 97.728C204.113 106.752 201.713 115.104 196.913 122.784C192.305 130.464 185.777 135.744 177.329 138.624V139.776C188.081 141.888 196.913 146.688 203.825 154.176C210.929 161.664 214.481 171.84 214.481 184.704C214.481 197.184 211.313 207.552 204.977 215.808C198.833 223.872 190.289 229.92 179.345 233.952C168.593 237.984 156.305 240 142.481 240H79.4086ZM108.785 216.96H139.025C154.001 216.96 165.521 214.272 173.585 208.896C181.649 203.328 185.681 194.784 185.681 183.264C185.681 172.512 181.649 164.736 173.585 159.936C165.713 154.944 154.193 152.448 139.025 152.448H108.785V216.96ZM108.785 130.272H134.417C148.817 130.272 159.185 127.68 165.521 122.496C172.049 117.312 175.313 110.4 175.313 101.76C175.313 91.776 171.953 84.768 165.233 80.736C158.513 76.512 148.529 74.4 135.281 74.4H108.785V130.272Z" fill="white"/>
<defs>
<linearGradient id="paint0_linear_102_4" x1="44.5" y1="9.38773e-08" x2="233.5" y2="280" gradientUnits="userSpaceOnUse">
<stop stop-color="#00E2D5"/>
<stop offset="1" stop-color="#3935F5"/>
</linearGradient>
</defs>
</svg>
