<svg width="280" height="280" viewBox="0 0 280 280" fill="none" xmlns="http://www.w3.org/2000/svg">
<rect width="280" height="280" rx="49" fill="url(#paint0_linear_102_4)"/>
<path d="M75.9864 240V52.224H139.058C151.922 52.224 163.538 53.664 173.906 56.544C184.274 59.232 192.434 64.032 198.386 70.944C204.53 77.664 207.602 86.88 207.602 98.592C207.602 107.232 205.298 115.488 200.69 123.36C196.274 131.04 190.13 136.32 182.258 139.2V140.352C192.242 142.656 200.498 147.456 207.026 154.752C213.746 162.048 217.106 172.032 217.106 184.704C217.106 197.376 213.842 207.84 207.314 216.096C200.786 224.16 192.05 230.208 181.106 234.24C170.162 238.08 157.874 240 144.242 240H75.9864ZM115.442 209.472H140.786C153.074 209.472 162.386 207.264 168.722 202.848C175.058 198.24 178.226 191.328 178.226 182.112C178.226 173.472 175.058 167.232 168.722 163.392C162.386 159.36 153.074 157.344 140.786 157.344H115.442V209.472ZM115.442 127.968H136.754C147.89 127.968 155.954 125.856 160.946 121.632C166.13 117.408 168.722 111.648 168.722 104.352C168.722 96.48 166.034 90.912 160.658 87.648C155.474 84.384 147.602 82.752 137.042 82.752H115.442V127.968Z" fill="white"/>
<defs>
<linearGradient id="paint0_linear_102_4" x1="0" y1="0" x2="280" y2="280" gradientUnits="userSpaceOnUse">
<stop stop-color="#4F6BFF"/>
<stop offset="1" stop-color="#00F0FF"/>
</linearGradient>
</defs>
</svg>
